<?xml version="1.0" encoding="utf-8"?>
<!-- Generator: Adobe Illustrator 16.0.0, SVG Export Plug-In . SVG Version: 6.00 Build 0)  -->
<!DOCTYPE svg PUBLIC "-//W3C//DTD SVG 1.1//EN" "http://www.w3.org/Graphics/SVG/1.1/DTD/svg11.dtd">
<svg version="1.1" id="Layer_1" xmlns="http://www.w3.org/2000/svg" xmlns:xlink="http://www.w3.org/1999/xlink" x="0px" y="0px"
	 width="100px" height="70px" viewBox="0 0 100 70" enable-background="new 0 0 100 70" xml:space="preserve">
<radialGradient id="SVGID_1_" cx="50" cy="35" r="28.192" gradientUnits="userSpaceOnUse">
	<stop  offset="0" style="stop-color:#4B6C99"/>
	<stop  offset="1" style="stop-color:#2A4061"/>
</radialGradient>
<ellipse fill="url(#SVGID_1_)" cx="50" cy="35" rx="28.281" ry="28.103"/>
<text transform="matrix(1.1225 0 0 1 53.3457 49.7383)" fill="#FFFFFF" font-family="'ChaparralPro-Bold'" font-size="4.1755">NATION</text>
<text transform="matrix(0.9417 0 0 1 48.3506 50.7871)" fill="#FFFFFF" font-family="'ChaparralPro-Bold'" font-size="9.3775">2</text>
<text transform="matrix(1.1225 0 0 1 30.1719 49.7383)" fill="#FFFFFF" font-family="'ChaparralPro-Bold'" font-size="4.1755">NATION</text>
<g>
	<ellipse fill="#FFFFFF" cx="50" cy="35.035" rx="14.01" ry="8.604"/>
	<path fill="#FE031E" d="M50.231,31.32l0.93,0.034l0.393-0.045l0.37,0.324h0.608l0.971,2.466l1.184-0.119l-0.481,0.811l-1.014,1.304
		l0.235,1.212l-0.533,0.819v0.356l-0.261,0.067l-0.848,1.205h-0.862V39.16l-0.291-0.461v-0.714l-0.222-0.26l0.265-0.931l-0.537-1.11
		l0.063-0.752c0,0-0.303,0.151-0.481-0.058s-0.179-0.208-0.179-0.208h-0.323l-0.065,0.281l-0.67-0.103l-0.335,0.06l-0.728-0.975
		l0.007-0.759l0.164-0.343l-0.24-0.305l0.841-0.714v-0.507l0.414-0.269l0.547,0.089l0.223-0.235"/>
	<path fill="#FB770D" d="M52.983,32.739l0.142-0.474h-0.451l-0.21-0.641l-0.135,0.104l-0.069,0.396l-0.193-0.289l-0.008-0.274
		l-0.253-0.324H51.59l-0.436-0.418l0.021-0.314l0.416-0.009l-0.034-0.337l-0.204,0.118l-0.071-0.254l-0.14-0.196l0.325-0.275
		l0.22-0.392l0.446-0.196l0.43-0.019l0.362,0.239l-0.269,0.221l0.188,0.142l0.227-0.267l0.215-0.157l0.167,0.119l0.482-0.103
		l0.373,0.035l-0.012-0.431l0.285,0.599l0.165-0.071l-0.004-0.297l0.291-0.283l0.452-0.173l0.57-0.045l0.232,0.254l0.395,0.043
		h0.417l0.26,0.272l0.275-0.269l0.3,0.027l0.381,0.172l0.677,0.049l0.751,0.055l0.782,0.21l0.236,0.142l-0.328,0.245
		c0,0-0.476-0.276-0.129,0.038c0.348,0.313-0.422-0.01-0.17,0.285c0.252,0.296,0.037,0.413,0.037,0.413l-0.233,0.319l-0.272-0.704
		l-0.169-0.167L59.03,30.31l-0.254-0.382l-0.032,0.382l0.465,0.197l0.206,0.334l-0.14,0.323l-0.245,0.335l-0.136,0.058l0.099,0.396
		l0.225,0.253l-0.108,0.126l-0.52-0.562h-0.168l0.007,0.456l0.315,0.468l0.091,0.5l-0.47,0.368l-0.153,0.077l-0.125,0.114
		l-0.142-0.219l-0.01,0.556l0.24,0.276l0.029,0.262l-0.324,0.155l-0.271-0.301l0.041,0.322l0.404,0.818l-0.12,0.124l-0.498-0.78
		l-0.002-0.72l-0.447-0.649c0,0-0.62-0.341-0.699,0.642C56.212,35.222,56,34.952,56,34.952l-0.374-0.874l0.021-0.56L55.185,33.3
		l-0.438-0.103l-0.337-0.022l-0.296-0.24l-0.012-0.145l-0.15-0.107l-0.003,0.365l0.506,0.355l0.313,0.121l0.003,0.193l-0.713,0.716
		l-0.261,0.023l-0.126-0.182l-0.235-0.674l-0.247-0.426L52.983,32.739z"/>
	<path fill="#DFEDE8" d="M38,38.447l0.748,0.396l0.705-0.439l1.066-0.574l1.218,0.233l0.508,0.258c0,0-0.051,0.069,0,0.495
		c0.052,0.425-0.208,0.944-0.208,0.944L43,39.589v-1.135v-0.792l0.633-0.218c0,0,0.171,0.142,0.426,0c0.255-0.141,0.569,0,0.569,0
		s0.182-0.047,0.539,0.189s0.066-0.046,0.372,0.236c0.306,0.284,0.669,0.702,0.669,0.702s0.003,0.798-0.251,1.017
		c-0.254,0.219-0.1-0.275-0.253,0.056C45.55,39.974,46.214,40,46.214,40h0.252l0.788-0.362l0.894,1.054l3.461-0.466l1.985-1.579
		l0.304,0.107l0.618,0.33l0.363-0.51L56,39.091v-0.637l1,0.078v0.713l-0.469,0.344l1.56-0.254l-0.239-1.275l-0.96-0.945l0.361-0.282
		l0.611-0.426l0.257-0.328c0,0-0.203,0.298,0-0.396c0.204-0.693,0.204-0.693,0.204-0.693s-0.203-0.23,0.203-0.278
		C58.936,34.664,58.936,35,58.936,35h0.749l-0.24-1.27c0,0-0.465,0.527-0.509-0.127c-0.042-0.654-0.899-0.616-0.042-0.718
		c0.856-0.101,0.856-0.132,0.856-0.132l1.322,0.221c0,0-0.456-1.615,0.307-0.812c0.764,0.803,0.764,0.799,0.764,0.799l0.763,1.085
		l-0.407,2.596l0.152,0.851l-0.255,0.52c0,0,1.172-0.615-0.101,0.613s-1.426,1.087-2.342,1.796
		c-0.915,0.709-0.915,0.709-0.915,0.709l-0.196,0.521L56.799,42h-1.804l-0.817,1.019L53.671,43h-0.809h-0.427l-0.521-0.271
		c0,0-0.561-0.097-0.51,0.045S50.468,43,50.468,43H49.45l-0.896-0.318l-0.967,0.471l-1.781-0.253l-0.864-0.602
		c0,0-1.323,0.149-1.171,0.102c0.152-0.047-0.865-0.375-0.865-0.375l-1.526-0.612l-1.313-0.188L39.7,40.657l0.356-0.472l0.56-0.597
		l-0.763-0.49l-0.584,0.49L38,39.193V38.447z"/>
</g>
</svg>
